<svg width="32" height="32" viewBox="0 0 32 32" fill="none" xmlns="http://www.w3.org/2000/svg">
<g clip-path="url(#clip0_849_2165)">
<mask id="mask0_849_2165" style="mask-type:luminance" maskUnits="userSpaceOnUse" x="0" y="0" width="32" height="32">
<path d="M32 0H0V32H32V0Z" fill="white"/>
</mask>
<g mask="url(#mask0_849_2165)">
<path opacity="0.4" d="M23.5863 5.74656V16.4266L16.7197 21.1866L15.133 21.6666L13.933 21.4L6.67969 16.4266V5.74656C6.67969 3.63989 8.37302 1.93323 10.4797 1.93323H19.7863C21.893 1.93323 23.5863 3.63989 23.5863 5.74656Z" fill="url(#paint0_linear_849_2165)"/>
<path d="M19.3468 10.1066C19.3468 12.5999 15.2001 14.6265 15.1335 14.6265C15.0535 14.6265 10.9067 12.5999 10.9067 10.1066C10.9067 8.89324 11.9067 7.57324 13.3868 7.57324C14.2401 7.57324 14.8001 7.95991 15.1335 8.31991C15.4535 7.95991 16.0135 7.57324 16.8668 7.57324C18.3601 7.57324 19.3468 8.87991 19.3468 10.1066Z" fill="url(#paint1_linear_849_2165)"/>
<path d="M30.5065 25.4265C30.5065 25.5198 30.4532 25.7332 30.1999 25.8132L28.8932 26.1732C27.7599 26.4798 26.9065 27.3332 26.5999 28.4665L26.2532 29.7465C26.1732 30.0398 25.9465 30.0665 25.8399 30.0665C25.7332 30.0665 25.5065 30.0398 25.4265 29.7465L25.0799 28.4532C24.7732 27.3332 23.9065 26.4798 22.7865 26.1732L21.4932 25.8265C21.2132 25.7465 21.1865 25.5065 21.1865 25.4132C21.1865 25.3065 21.2132 25.0665 21.4932 24.9865L22.7999 24.6398C23.9199 24.3198 24.7732 23.4665 25.0799 22.3465L25.4532 20.9865C25.5465 20.7598 25.7599 20.7198 25.8399 20.7198C25.9199 20.7198 26.1465 20.7465 26.2265 20.9598L26.5999 22.3332C26.9065 23.4532 27.7732 24.3065 28.8932 24.6265L30.2265 24.9999C30.4932 25.1065 30.5065 25.3465 30.5065 25.4265Z" fill="url(#paint2_linear_849_2165)"/>
<path d="M28.7732 13.0798V23.1864C28.3332 22.9331 27.9865 22.5198 27.8665 22.0131L27.4532 20.5198C27.1998 19.8531 26.6132 19.3998 25.8532 19.3998C25.1198 19.3998 24.4665 19.8398 24.2265 20.5064L24.1332 20.7331L23.7998 21.9998C23.6132 22.6664 23.1198 23.1598 22.4398 23.3598L21.1465 23.6931C20.3598 23.9198 19.8532 24.5864 19.8532 25.3998C19.8532 26.2131 20.3732 26.8798 21.1332 27.0931L22.4398 27.4531C22.9065 27.5731 23.2798 27.8798 23.5332 28.2664H3.85316C2.5465 28.2664 1.49316 27.1864 1.49316 25.8664C1.49316 25.8664 1.5065 12.7998 1.5065 12.7598C1.5465 12.1598 1.79983 11.5865 2.25316 11.1732L6.67983 7.07983V9.67983L3.5465 12.5732C3.39983 12.7065 3.3865 12.8532 3.39983 12.9332C3.39983 13.0265 3.43983 13.1865 3.59983 13.2932L6.67983 15.3731L14.0932 20.3998C14.3598 20.5864 14.6932 20.6931 15.0265 20.7198C15.4265 20.7464 15.8532 20.6264 16.1998 20.3998L23.5865 15.3864L26.6798 13.2932C26.8398 13.1865 26.8665 13.0265 26.8798 12.9465C26.8798 12.8665 26.8798 12.7065 26.7332 12.5865L23.5865 9.73317V7.17317C23.5865 7.17317 23.6398 7.19983 23.6665 7.2265L27.9998 11.1732C28.5465 11.6532 28.8265 12.3465 28.7732 13.0798Z" fill="url(#paint3_linear_849_2165)"/>
</g>
</g>
<defs>
<linearGradient id="paint0_linear_849_2165" x1="15.133" y1="18.6546" x2="15.133" y2="-3.44042" gradientUnits="userSpaceOnUse">
<stop offset="0.31" stop-color="#16ADFE"/>
<stop offset="0.63" stop-color="#0997FC"/>
<stop offset="0.79" stop-color="#028AFB"/>
</linearGradient>
<linearGradient id="paint1_linear_849_2165" x1="15.1268" y1="13.55" x2="15.1268" y2="5.65254" gradientUnits="userSpaceOnUse">
<stop offset="0.31" stop-color="#16ADFE"/>
<stop offset="0.63" stop-color="#0997FC"/>
<stop offset="0.79" stop-color="#028AFB"/>
</linearGradient>
<linearGradient id="paint2_linear_849_2165" x1="25.8465" y1="28.6399" x2="25.8465" y2="18.1746" gradientUnits="userSpaceOnUse">
<stop offset="0.31" stop-color="#16ADFE"/>
<stop offset="0.63" stop-color="#0997FC"/>
<stop offset="0.79" stop-color="#028AFB"/>
</linearGradient>
<linearGradient id="paint3_linear_849_2165" x1="15.1364" y1="25.0326" x2="15.1364" y2="1.31045" gradientUnits="userSpaceOnUse">
<stop offset="0.31" stop-color="#16ADFE"/>
<stop offset="0.63" stop-color="#0997FC"/>
<stop offset="0.79" stop-color="#028AFB"/>
</linearGradient>
<clipPath id="clip0_849_2165">
<rect width="32" height="32" fill="white"/>
</clipPath>
</defs>
</svg>
