<svg width="32" height="32" viewBox="0 0 32 32" fill="none" xmlns="http://www.w3.org/2000/svg">
<g clip-path="url(#clip0_849_2126)">
<mask id="mask0_849_2126" style="mask-type:luminance" maskUnits="userSpaceOnUse" x="0" y="0" width="32" height="32">
<path d="M32 0H0V32H32V0Z" fill="white"/>
</mask>
<g mask="url(#mask0_849_2126)">
<g opacity="0.4">
<path d="M21.5864 2.66663H10.4263C5.57301 2.66663 2.67969 5.55996 2.67969 10.4133V21.5733C2.67969 26.4266 5.57301 29.32 10.4263 29.32H21.5864C26.4397 29.32 29.3331 26.4266 29.3331 21.5733V10.4133C29.3331 5.55996 26.4397 2.66663 21.5864 2.66663Z" fill="#0B64AB"/>
<path d="M21.5864 2.66663H10.4263C5.57301 2.66663 2.67969 5.55996 2.67969 10.4133V21.5733C2.67969 26.4266 5.57301 29.32 10.4263 29.32H21.5864C26.4397 29.32 29.3331 26.4266 29.3331 21.5733V10.4133C29.3331 5.55996 26.4397 2.66663 21.5864 2.66663Z" fill="url(#paint0_linear_849_2126)"/>
</g>
<path d="M18.5598 12.3723L18.6265 16.3056L22.1332 16.2522C22.3865 16.2522 22.5732 16.4789 22.5332 16.7189L22.0665 19.2656C22.0265 19.4522 21.8665 19.5856 21.6798 19.5989L18.6798 19.6522L18.8398 29.3189L14.8398 29.3856L14.6798 19.7189L12.4131 19.7589C12.1865 19.7589 12.0131 19.5856 12.0131 19.3589L11.9731 16.8256C11.9731 16.5989 12.1465 16.4256 12.3731 16.4256L14.6398 16.3856L14.5732 12.0523C14.5332 9.83892 16.2932 8.02558 18.5065 7.98558L22.1065 7.93225C22.3332 7.93225 22.5065 8.10558 22.5065 8.33225L22.5598 11.5323C22.5598 11.7589 22.3865 11.9323 22.1598 11.9323L18.9598 11.9856C18.7332 11.9723 18.5598 12.1589 18.5598 12.3723Z" fill="#0B64AB"/>
<path d="M18.5598 12.3723L18.6265 16.3056L22.1332 16.2522C22.3865 16.2522 22.5732 16.4789 22.5332 16.7189L22.0665 19.2656C22.0265 19.4522 21.8665 19.5856 21.6798 19.5989L18.6798 19.6522L18.8398 29.3189L14.8398 29.3856L14.6798 19.7189L12.4131 19.7589C12.1865 19.7589 12.0131 19.5856 12.0131 19.3589L11.9731 16.8256C11.9731 16.5989 12.1465 16.4256 12.3731 16.4256L14.6398 16.3856L14.5732 12.0523C14.5332 9.83892 16.2932 8.02558 18.5065 7.98558L22.1065 7.93225C22.3332 7.93225 22.5065 8.10558 22.5065 8.33225L22.5598 11.5323C22.5598 11.7589 22.3865 11.9323 22.1598 11.9323L18.9598 11.9856C18.7332 11.9723 18.5598 12.1589 18.5598 12.3723Z" fill="url(#paint1_linear_849_2126)"/>
</g>
</g>
<defs>
<linearGradient id="paint0_linear_849_2126" x1="16.0064" y1="25.2517" x2="16.0064" y2="-4.59141" gradientUnits="userSpaceOnUse">
<stop offset="0.31" stop-color="#16ADFE"/>
<stop offset="0.63" stop-color="#0997FC"/>
<stop offset="0.79" stop-color="#028AFB"/>
</linearGradient>
<linearGradient id="paint1_linear_849_2126" x1="17.2665" y1="26.111" x2="17.2665" y2="2.09025" gradientUnits="userSpaceOnUse">
<stop offset="0.31" stop-color="#16ADFE"/>
<stop offset="0.63" stop-color="#0997FC"/>
<stop offset="0.79" stop-color="#028AFB"/>
</linearGradient>
<clipPath id="clip0_849_2126">
<rect width="32" height="32" fill="white"/>
</clipPath>
</defs>
</svg>
