<svg width="32" height="32" viewBox="0 0 32 32" fill="none" xmlns="http://www.w3.org/2000/svg">
<g clip-path="url(#clip0_849_2148)">
<mask id="mask0_849_2148" style="mask-type:luminance" maskUnits="userSpaceOnUse" x="0" y="0" width="32" height="32">
<path d="M32 0H0V32H32V0Z" fill="white"/>
</mask>
<g mask="url(#mask0_849_2148)">
<g opacity="0.4">
<path d="M21.5865 2.66663H10.4132C5.55984 2.66663 2.6665 5.55996 2.6665 10.4133V21.5733C2.6665 26.44 5.55984 29.3333 10.4132 29.3333H21.5732C26.4265 29.3333 29.3198 26.44 29.3198 21.5866V10.4133C29.3332 5.55996 26.4398 2.66663 21.5865 2.66663Z" fill="#0B64AB"/>
<path d="M21.5865 2.66663H10.4132C5.55984 2.66663 2.6665 5.55996 2.6665 10.4133V21.5733C2.6665 26.44 5.55984 29.3333 10.4132 29.3333H21.5732C26.4265 29.3333 29.3198 26.44 29.3198 21.5866V10.4133C29.3332 5.55996 26.4398 2.66663 21.5865 2.66663Z" fill="url(#paint0_linear_849_2148)"/>
</g>
<path d="M16 21.1721C18.8572 21.1721 21.1733 18.8559 21.1733 15.9987C21.1733 13.1416 18.8572 10.8254 16 10.8254C13.1428 10.8254 10.8267 13.1416 10.8267 15.9987C10.8267 18.8559 13.1428 21.1721 16 21.1721Z" fill="#0B64AB"/>
<path d="M16 21.1721C18.8572 21.1721 21.1733 18.8559 21.1733 15.9987C21.1733 13.1416 18.8572 10.8254 16 10.8254C13.1428 10.8254 10.8267 13.1416 10.8267 15.9987C10.8267 18.8559 13.1428 21.1721 16 21.1721Z" fill="url(#paint1_linear_849_2148)"/>
<path d="M22.6663 10.0011C22.3063 10.0011 21.973 9.86776 21.7197 9.61443C21.5997 9.48109 21.5063 9.33443 21.4397 9.17443C21.373 9.01443 21.333 8.84109 21.333 8.66776C21.333 8.49443 21.373 8.32109 21.4397 8.16109C21.5063 7.98776 21.5997 7.85443 21.7197 7.72109C22.0263 7.41443 22.493 7.26776 22.9197 7.36109C23.013 7.37443 23.093 7.40109 23.173 7.44109C23.253 7.46776 23.333 7.50776 23.413 7.56109C23.4797 7.60109 23.5463 7.66776 23.613 7.72109C23.733 7.85443 23.8263 7.98776 23.893 8.16109C23.9597 8.32109 23.9997 8.49443 23.9997 8.66776C23.9997 8.84109 23.9597 9.01443 23.893 9.17443C23.8263 9.33443 23.733 9.48109 23.613 9.61443C23.4797 9.73443 23.333 9.82776 23.173 9.89443C23.013 9.96109 22.8397 10.0011 22.6663 10.0011Z" fill="#0B64AB"/>
<path d="M22.6663 10.0011C22.3063 10.0011 21.973 9.86776 21.7197 9.61443C21.5997 9.48109 21.5063 9.33443 21.4397 9.17443C21.373 9.01443 21.333 8.84109 21.333 8.66776C21.333 8.49443 21.373 8.32109 21.4397 8.16109C21.5063 7.98776 21.5997 7.85443 21.7197 7.72109C22.0263 7.41443 22.493 7.26776 22.9197 7.36109C23.013 7.37443 23.093 7.40109 23.173 7.44109C23.253 7.46776 23.333 7.50776 23.413 7.56109C23.4797 7.60109 23.5463 7.66776 23.613 7.72109C23.733 7.85443 23.8263 7.98776 23.893 8.16109C23.9597 8.32109 23.9997 8.49443 23.9997 8.66776C23.9997 8.84109 23.9597 9.01443 23.893 9.17443C23.8263 9.33443 23.733 9.48109 23.613 9.61443C23.4797 9.73443 23.333 9.82776 23.173 9.89443C23.013 9.96109 22.8397 10.0011 22.6663 10.0011Z" fill="url(#paint2_linear_849_2148)"/>
</g>
</g>
<defs>
<linearGradient id="paint0_linear_849_2148" x1="15.9932" y1="25.263" x2="15.9932" y2="-4.59504" gradientUnits="userSpaceOnUse">
<stop offset="0.31" stop-color="#16ADFE"/>
<stop offset="0.63" stop-color="#0997FC"/>
<stop offset="0.79" stop-color="#028AFB"/>
</linearGradient>
<linearGradient id="paint1_linear_849_2148" x1="16" y1="19.5928" x2="16" y2="8.00793" gradientUnits="userSpaceOnUse">
<stop offset="0.31" stop-color="#16ADFE"/>
<stop offset="0.63" stop-color="#0997FC"/>
<stop offset="0.79" stop-color="#028AFB"/>
</linearGradient>
<linearGradient id="paint2_linear_849_2148" x1="22.6663" y1="9.59389" x2="22.6663" y2="6.60677" gradientUnits="userSpaceOnUse">
<stop offset="0.31" stop-color="#16ADFE"/>
<stop offset="0.63" stop-color="#0997FC"/>
<stop offset="0.79" stop-color="#028AFB"/>
</linearGradient>
<clipPath id="clip0_849_2148">
<rect width="32" height="32" fill="white"/>
</clipPath>
</defs>
</svg>
