<svg width="53" height="52" viewBox="0 0 53 52" fill="none" xmlns="http://www.w3.org/2000/svg">
<g clip-path="url(#clip0_849_2067)">
<mask id="mask0_849_2067" style="mask-type:luminance" maskUnits="userSpaceOnUse" x="0" y="0" width="53" height="52">
<path d="M52.5 0H0.5V52H52.5V0Z" fill="white"/>
</mask>
<g mask="url(#mask0_849_2067)">
<path opacity="0.4" d="M46.2382 24.7217V40.2133C46.2382 45.0017 42.3598 48.88 37.5715 48.88H11.5715C6.78312 48.88 2.90479 45.0017 2.90479 40.2133V24.7217C2.90479 22.035 4.13979 19.5216 6.26312 17.875L19.2631 7.75665C22.3831 5.32998 26.7815 5.32998 29.9015 7.75665L31.3098 8.83998L30.4865 9.05665C28.7098 9.55498 27.5615 11.0933 27.5615 12.87C27.5615 14.6466 28.7098 16.1633 30.3998 16.64L33.1515 17.3766C34.4515 17.745 35.4481 18.7416 35.8165 20.0416L36.5531 22.7283C37.0298 24.4833 38.5465 25.6317 40.3448 25.6317C42.1431 25.6317 43.6598 24.4617 44.1365 22.7283L44.8515 20.1066C45.7181 21.4716 46.2382 23.0533 46.2382 24.7217Z" fill="white"/>
<path d="M26.1963 33.7131V40.2131C26.1963 41.1015 25.4596 41.8381 24.5713 41.8381C23.683 41.8381 22.9463 41.1015 22.9463 40.2131V33.7131C22.9463 32.8248 23.683 32.0881 24.5713 32.0881C25.4596 32.0881 26.1963 32.8248 26.1963 33.7131Z" fill="white"/>
<path d="M50.0949 12.9349C50.0949 13.1299 49.9866 13.5632 49.4666 13.7365L46.7149 14.4949C44.3532 15.1449 42.5766 16.9215 41.9266 19.2832L41.1899 21.9698C41.0166 22.5765 40.5399 22.6415 40.3232 22.6415C40.1066 22.6415 39.6299 22.5765 39.4566 21.9698L38.7199 19.2615C38.0699 16.9215 36.2716 15.1449 33.9316 14.4949L31.2232 13.7582C30.6382 13.5849 30.5732 13.0865 30.5732 12.8915C30.5732 12.6749 30.6382 12.1765 31.2232 12.0032L33.9532 11.2882C36.2932 10.6165 38.0699 8.83987 38.7199 6.49987L39.4999 3.66154C39.6949 3.18487 40.1282 3.11987 40.3232 3.11987C40.5182 3.11987 40.9732 3.18487 41.1466 3.61821L41.9266 6.47821C42.5766 8.81821 44.3749 10.5949 46.7149 11.2665L49.5099 12.0249C50.0732 12.2415 50.0949 12.7615 50.0949 12.9349Z" fill="white"/>
</g>
</g>
<defs>
<clipPath id="clip0_849_2067">
<rect width="52" height="52" fill="white" transform="translate(0.5)"/>
</clipPath>
</defs>
</svg>
