<svg width="53" height="52" viewBox="0 0 53 52" fill="none" xmlns="http://www.w3.org/2000/svg">
<g clip-path="url(#clip0_849_2111)">
<mask id="mask0_849_2111" style="mask-type:luminance" maskUnits="userSpaceOnUse" x="0" y="0" width="53" height="52">
<path d="M52.5 0H0.5V52H52.5V0Z" fill="white"/>
</mask>
<g mask="url(#mask0_849_2111)">
<path opacity="0.4" d="M35.6865 4.33337H17.3132C11.3332 4.33337 9.1665 6.50004 9.1665 12.5884V39.4117C9.1665 45.5 11.3332 47.6667 17.3132 47.6667H35.6648C41.6665 47.6667 43.8332 45.5 43.8332 39.4117V12.5884C43.8332 6.50004 41.6665 4.33337 35.6865 4.33337Z" fill="white"/>
<path d="M30.8332 13.5417H22.1665C21.2782 13.5417 20.5415 12.8051 20.5415 11.9167C20.5415 11.0284 21.2782 10.2917 22.1665 10.2917H30.8332C31.7215 10.2917 32.4582 11.0284 32.4582 11.9167C32.4582 12.8051 31.7215 13.5417 30.8332 13.5417Z" fill="white"/>
<path d="M26.4997 41.8184C28.5938 41.8184 30.2913 40.1209 30.2913 38.0268C30.2913 35.9327 28.5938 34.2351 26.4997 34.2351C24.4056 34.2351 22.708 35.9327 22.708 38.0268C22.708 40.1209 24.4056 41.8184 26.4997 41.8184Z" fill="white"/>
</g>
</g>
<defs>
<clipPath id="clip0_849_2111">
<rect width="52" height="52" fill="white" transform="translate(0.5)"/>
</clipPath>
</defs>
</svg>
