<svg width="32" height="32" viewBox="0 0 32 32" fill="none" xmlns="http://www.w3.org/2000/svg">
<g clip-path="url(#clip0_849_2133)">
<mask id="mask0_849_2133" style="mask-type:luminance" maskUnits="userSpaceOnUse" x="0" y="0" width="32" height="32">
<path d="M32 0H0V32H32V0Z" fill="white"/>
</mask>
<g mask="url(#mask0_849_2133)">
<g opacity="0.4">
<path d="M15.9998 29.3333C23.3636 29.3333 29.3332 23.3637 29.3332 16C29.3332 8.63616 23.3636 2.66663 15.9998 2.66663C8.63604 2.66663 2.6665 8.63616 2.6665 16C2.6665 23.3637 8.63604 29.3333 15.9998 29.3333Z" fill="#0B64AB"/>
<path d="M15.9998 29.3333C23.3636 29.3333 29.3332 23.3637 29.3332 16C29.3332 8.63616 23.3636 2.66663 15.9998 2.66663C8.63604 2.66663 2.6665 8.63616 2.6665 16C2.6665 23.3637 8.63604 29.3333 15.9998 29.3333Z" fill="url(#paint0_linear_849_2133)"/>
</g>
<path fill-rule="evenodd" clip-rule="evenodd" d="M23.0797 20.4139C22.6931 20.6272 22.3731 20.7206 22.1064 20.7872C21.8797 20.8406 21.6931 20.8939 21.5331 21.0006C21.3597 21.1072 21.3464 21.2807 21.3197 21.4407C21.2931 21.5874 21.2797 21.7072 21.1731 21.7872C21.0531 21.8672 20.8264 21.8806 20.5197 21.8939C20.1197 21.9206 19.6131 21.9339 18.9997 22.1206C18.7064 22.2272 18.4397 22.3874 18.1731 22.5474C17.6397 22.8807 17.0397 23.2406 15.9864 23.2406C14.9464 23.2406 14.3464 22.8807 13.8131 22.5474C13.5464 22.374 13.2797 22.214 12.9731 22.1074C12.3731 21.9207 11.853 21.894 11.453 21.8807C11.1464 21.8674 10.933 21.854 10.7997 21.774C10.693 21.7074 10.6797 21.5739 10.653 21.4272C10.6264 21.2672 10.613 21.0939 10.4397 20.9872C10.2797 20.8806 10.0797 20.8272 9.86636 20.7606C9.5997 20.6939 9.27972 20.614 8.89306 20.4007C8.43972 20.1474 8.70639 20.0007 8.85306 19.9207C11.4264 18.6807 11.8264 16.7606 11.8397 16.6139C11.8397 16.6006 11.8397 16.6007 11.8397 16.5874C11.8664 16.4274 11.8797 16.2939 11.693 16.1206C11.573 16.0006 11.1597 15.7339 10.8264 15.5206C10.6797 15.4139 10.5464 15.334 10.4664 15.294C10.093 15.0274 9.93306 14.774 10.0531 14.4407C10.1331 14.214 10.3464 14.1339 10.5597 14.1339C10.6264 14.1339 10.7064 14.1474 10.7597 14.1607C10.9997 14.214 11.2397 14.3074 11.453 14.3874C11.5997 14.454 11.7197 14.4939 11.813 14.5206C11.8397 14.5339 11.8797 14.534 11.8931 14.534C12.0264 14.534 12.0664 14.4672 12.0531 14.3339C12.0531 14.2939 12.053 14.254 12.0397 14.214C12.013 13.7474 11.973 12.934 12.0264 12.1873C12.133 11.0673 12.493 10.494 12.9197 10.014C13.133 9.77398 14.1064 8.74731 15.9597 8.74731C17.8131 8.74731 18.7864 9.77398 18.9997 10.0006C19.4264 10.494 19.7864 11.054 19.8931 12.1873C19.9597 12.974 19.9064 13.8139 19.8664 14.2806V14.3206C19.8531 14.4672 19.8931 14.5206 20.0264 14.5206C20.0531 14.5206 20.0797 14.5206 20.1064 14.5072C20.1997 14.4806 20.3197 14.4407 20.4664 14.3874C20.6664 14.3074 20.9064 14.214 21.1597 14.1607C21.2264 14.134 21.2931 14.1339 21.3597 14.1339C21.5864 14.1339 21.7864 14.2272 21.8664 14.4539C21.9864 14.7739 21.8264 15.0274 21.4531 15.294C21.3864 15.3474 21.2531 15.4406 21.0931 15.5206C20.7731 15.7339 20.3464 16.0006 20.2264 16.1206C20.0397 16.2939 20.0531 16.4274 20.0797 16.5874C20.0797 16.6007 20.0797 16.6139 20.0797 16.6139C20.1064 16.7606 20.5064 18.6807 23.0664 19.9207C23.2664 20.0007 23.5331 20.1606 23.0797 20.4139Z" fill="#0B64AB"/>
<path fill-rule="evenodd" clip-rule="evenodd" d="M23.0797 20.4139C22.6931 20.6272 22.3731 20.7206 22.1064 20.7872C21.8797 20.8406 21.6931 20.8939 21.5331 21.0006C21.3597 21.1072 21.3464 21.2807 21.3197 21.4407C21.2931 21.5874 21.2797 21.7072 21.1731 21.7872C21.0531 21.8672 20.8264 21.8806 20.5197 21.8939C20.1197 21.9206 19.6131 21.9339 18.9997 22.1206C18.7064 22.2272 18.4397 22.3874 18.1731 22.5474C17.6397 22.8807 17.0397 23.2406 15.9864 23.2406C14.9464 23.2406 14.3464 22.8807 13.8131 22.5474C13.5464 22.374 13.2797 22.214 12.9731 22.1074C12.3731 21.9207 11.853 21.894 11.453 21.8807C11.1464 21.8674 10.933 21.854 10.7997 21.774C10.693 21.7074 10.6797 21.5739 10.653 21.4272C10.6264 21.2672 10.613 21.0939 10.4397 20.9872C10.2797 20.8806 10.0797 20.8272 9.86636 20.7606C9.5997 20.6939 9.27972 20.614 8.89306 20.4007C8.43972 20.1474 8.70639 20.0007 8.85306 19.9207C11.4264 18.6807 11.8264 16.7606 11.8397 16.6139C11.8397 16.6006 11.8397 16.6007 11.8397 16.5874C11.8664 16.4274 11.8797 16.2939 11.693 16.1206C11.573 16.0006 11.1597 15.7339 10.8264 15.5206C10.6797 15.4139 10.5464 15.334 10.4664 15.294C10.093 15.0274 9.93306 14.774 10.0531 14.4407C10.1331 14.214 10.3464 14.1339 10.5597 14.1339C10.6264 14.1339 10.7064 14.1474 10.7597 14.1607C10.9997 14.214 11.2397 14.3074 11.453 14.3874C11.5997 14.454 11.7197 14.4939 11.813 14.5206C11.8397 14.5339 11.8797 14.534 11.8931 14.534C12.0264 14.534 12.0664 14.4672 12.0531 14.3339C12.0531 14.2939 12.053 14.254 12.0397 14.214C12.013 13.7474 11.973 12.934 12.0264 12.1873C12.133 11.0673 12.493 10.494 12.9197 10.014C13.133 9.77398 14.1064 8.74731 15.9597 8.74731C17.8131 8.74731 18.7864 9.77398 18.9997 10.0006C19.4264 10.494 19.7864 11.054 19.8931 12.1873C19.9597 12.974 19.9064 13.8139 19.8664 14.2806V14.3206C19.8531 14.4672 19.8931 14.5206 20.0264 14.5206C20.0531 14.5206 20.0797 14.5206 20.1064 14.5072C20.1997 14.4806 20.3197 14.4407 20.4664 14.3874C20.6664 14.3074 20.9064 14.214 21.1597 14.1607C21.2264 14.134 21.2931 14.1339 21.3597 14.1339C21.5864 14.1339 21.7864 14.2272 21.8664 14.4539C21.9864 14.7739 21.8264 15.0274 21.4531 15.294C21.3864 15.3474 21.2531 15.4406 21.0931 15.5206C20.7731 15.7339 20.3464 16.0006 20.2264 16.1206C20.0397 16.2939 20.0531 16.4274 20.0797 16.5874C20.0797 16.6007 20.0797 16.6139 20.0797 16.6139C20.1064 16.7606 20.5064 18.6807 23.0664 19.9207C23.2664 20.0007 23.5331 20.1606 23.0797 20.4139Z" fill="url(#paint1_linear_849_2133)"/>
</g>
</g>
<defs>
<linearGradient id="paint0_linear_849_2133" x1="15.9998" y1="25.263" x2="15.9998" y2="-4.59504" gradientUnits="userSpaceOnUse">
<stop offset="0.31" stop-color="#16ADFE"/>
<stop offset="0.63" stop-color="#0997FC"/>
<stop offset="0.79" stop-color="#028AFB"/>
</linearGradient>
<linearGradient id="paint1_linear_849_2133" x1="15.9846" y1="21.0284" x2="15.9846" y2="4.80062" gradientUnits="userSpaceOnUse">
<stop offset="0.31" stop-color="#16ADFE"/>
<stop offset="0.63" stop-color="#0997FC"/>
<stop offset="0.79" stop-color="#028AFB"/>
</linearGradient>
<clipPath id="clip0_849_2133">
<rect width="32" height="32" fill="white"/>
</clipPath>
</defs>
</svg>
