<svg width="53" height="52" viewBox="0 0 53 52" fill="none" xmlns="http://www.w3.org/2000/svg">
<g clip-path="url(#clip0_849_2082)">
<mask id="mask0_849_2082" style="mask-type:luminance" maskUnits="userSpaceOnUse" x="0" y="0" width="53" height="52">
<path d="M52.5 0H0.5V52H52.5V0Z" fill="white"/>
</mask>
<g mask="url(#mask0_849_2082)">
<path opacity="0.4" d="M15.5375 44.6992C18.7658 46.5842 22.5142 47.6678 26.5008 47.6678C38.6992 47.6678 48.8392 36.8995 48.1242 24.7228C47.3875 12.156 35.9692 2.47102 22.8175 4.63768C13.7608 6.13268 6.50246 13.4777 5.09413 22.5345C4.2708 27.7778 5.35417 32.7392 7.71584 36.8345L5.78749 44.0059C5.35415 45.6309 6.84911 47.1042 8.45244 46.6492L15.5375 44.6992Z" fill="white"/>
<path d="M37.3337 32.8695C37.3337 33.2595 37.247 33.6711 37.052 34.0611C36.857 34.4511 36.6187 34.8195 36.3153 35.1661C35.7737 35.7511 35.1887 36.1845 34.5387 36.4445C33.8887 36.7261 33.1737 36.8561 32.4153 36.8561C31.3103 36.8561 30.1187 36.5961 28.8837 36.0544C27.627 35.5128 26.392 34.7978 25.157 33.9095C23.9003 32.9995 22.7303 31.9811 21.6036 30.8761C20.477 29.7495 19.4804 28.5578 18.5704 27.3228C17.6821 26.0878 16.967 24.8528 16.447 23.6178C15.927 22.3828 15.667 21.1911 15.667 20.0644C15.667 19.3277 15.797 18.6127 16.057 17.9627C16.317 17.2911 16.7287 16.6844 17.3137 16.1427C18.007 15.4494 18.7653 15.1244 19.567 15.1244C19.8703 15.1244 20.1737 15.1894 20.4554 15.3194C20.737 15.4494 20.997 15.6444 21.192 15.926L23.6837 19.5011C23.8787 19.7827 24.0303 20.021 24.117 20.2594C24.2253 20.4977 24.2687 20.7144 24.2687 20.9311C24.2687 21.1911 24.182 21.451 24.0303 21.7111C23.8787 21.9711 23.6837 22.2311 23.4237 22.4911L22.6003 23.3578C22.4703 23.4878 22.427 23.6178 22.427 23.7911C22.427 23.8778 22.4487 23.9645 22.4703 24.0511C22.5137 24.1378 22.5353 24.2028 22.557 24.2678C22.752 24.6361 23.0987 25.0911 23.5753 25.6545C24.0737 26.2178 24.5937 26.8028 25.157 27.3661C25.742 27.9511 26.3053 28.4711 26.8903 28.9695C27.4537 29.4461 27.9303 29.7711 28.2987 29.9661C28.3637 29.9878 28.4287 30.0311 28.4937 30.0528C28.5803 30.0961 28.667 30.0961 28.7753 30.0961C28.9703 30.0961 29.1003 30.0311 29.2303 29.9011L30.0537 29.0778C30.3353 28.7961 30.5953 28.6011 30.8337 28.4711C31.0937 28.3195 31.332 28.2328 31.6137 28.2328C31.8303 28.2328 32.047 28.2761 32.2853 28.3845C32.5237 28.4928 32.7837 28.6228 33.0437 28.8178L36.6403 31.3745C36.922 31.5695 37.117 31.8078 37.247 32.0678C37.2687 32.3061 37.3337 32.5661 37.3337 32.8695Z" fill="white"/>
</g>
</g>
<defs>
<clipPath id="clip0_849_2082">
<rect width="52" height="52" fill="white" transform="translate(0.5)"/>
</clipPath>
</defs>
</svg>
